<svg width="100" height="100" viewBox="0 0 100 100" fill="none" xmlns="http://www.w3.org/2000/svg">
<rect width="100" height="100" fill="white"/>
<path d="M89 48C89 68.8157 72.9238 85.7223 52.9923 85.9966L53 86H24.7557C21.1112 86 19.3654 81.5238 22.0475 79.0563L25.8964 75.5153C26.3086 75.1361 26.328 74.4933 25.9518 74.0784C19.7821 67.2732 16 58.0964 16 48C16 28.7791 29.7073 12.8912 47.5 10.3536V10H52.5C72.6584 10 89 27.0132 89 48Z" fill="#C8C8C8" stroke="black" stroke-width="0.5"/>
<g filter="url(#filter0_i_21_9)">
<path fill-rule="evenodd" clip-rule="evenodd" d="M48 86C67.9314 85.7257 84 68.8157 84 48C84 27.0132 67.6584 10 47.5 10C27.3416 10 11 27.0132 11 48C11 57.7229 14.5075 66.593 20.277 73.3135C20.9192 74.0616 21.2403 74.4356 21.2166 74.8391C21.1928 75.2426 20.8438 75.5637 20.1457 76.2059L17.0475 79.0563C14.3654 81.5238 16.1112 86 19.7557 86H48Z" fill="#D9D9D9"/>
</g>
<path fill-rule="evenodd" clip-rule="evenodd" d="M48 86C67.9314 85.7257 84 68.8157 84 48C84 27.0132 67.6584 10 47.5 10C27.3416 10 11 27.0132 11 48C11 57.7229 14.5075 66.593 20.277 73.3135C20.9192 74.0616 21.2403 74.4356 21.2166 74.8391C21.1928 75.2426 20.8438 75.5637 20.1457 76.2059L17.0475 79.0563C14.3654 81.5238 16.1112 86 19.7557 86H48Z" stroke="black" stroke-width="0.5"/>
<path d="M49 31H48C46.1144 31 45.1716 31 44.5858 31.5858C44 32.1716 44 33.1144 44 35V41C44 42.8856 44 43.8284 43.4142 44.4142C42.8284 45 41.8856 45 40 45H35C33.1144 45 32.1716 45 31.5858 45.5858C31 46.1716 31 47.1144 31 49C31 50.8856 31 51.8284 31.5858 52.4142C32.1716 53 33.1144 53 35 53H40.5C42.3856 53 43.3284 53 43.9142 53.5858C44.5 54.1716 44.5 55.1144 44.5 57V63C44.5 64.8856 44.5 65.8284 45.0858 66.4142C45.6716 67 46.6144 67 48.5 67H49C50.8856 67 51.8284 67 52.4142 66.4142C53 65.8284 53 64.8856 53 63V57C53 55.1144 53 54.1716 53.5858 53.5858C54.1716 53 55.1144 53 57 53H63C64.8856 53 65.8284 53 66.4142 52.4142C67 51.8284 67 50.8856 67 49C67 47.1144 67 46.1716 66.4142 45.5858C65.8284 45 64.8856 45 63 45H57C55.1144 45 54.1716 45 53.5858 44.4142C53 43.8284 53 42.8856 53 41V35C53 33.1144 53 32.1716 52.4142 31.5858C51.8284 31 50.8856 31 49 31Z" fill="black" stroke="black" stroke-width="0.32"/>
<path d="M47.5 31H46.5C44.6144 31 43.6716 31 43.0858 31.5858C42.5 32.1716 42.5 33.1144 42.5 35V41C42.5 42.8856 42.5 43.8284 41.9142 44.4142C41.3284 45 40.3856 45 38.5 45H33.5C31.6144 45 30.6716 45 30.0858 45.5858C29.5 46.1716 29.5 47.1144 29.5 49C29.5 50.8856 29.5 51.8284 30.0858 52.4142C30.6716 53 31.6144 53 33.5 53H39C40.8856 53 41.8284 53 42.4142 53.5858C43 54.1716 43 55.1144 43 57V63C43 64.8856 43 65.8284 43.5858 66.4142C44.1716 67 45.1144 67 47 67H47.5C49.3856 67 50.3284 67 50.9142 66.4142C51.5 65.8284 51.5 64.8856 51.5 63V57C51.5 55.1144 51.5 54.1716 52.0858 53.5858C52.6716 53 53.6144 53 55.5 53H61.5C63.3856 53 64.3284 53 64.9142 52.4142C65.5 51.8284 65.5 50.8856 65.5 49C65.5 47.1144 65.5 46.1716 64.9142 45.5858C64.3284 45 63.3856 45 61.5 45H55.5C53.6144 45 52.6716 45 52.0858 44.4142C51.5 43.8284 51.5 42.8856 51.5 41V35C51.5 33.1144 51.5 32.1716 50.9142 31.5858C50.3284 31 49.3856 31 47.5 31Z" fill="#1B1B1B" stroke="black" stroke-width="0.32"/>
<defs>
<filter id="filter0_i_21_9" x="10.75" y="9.75" width="75.5" height="76.5" filterUnits="userSpaceOnUse" color-interpolation-filters="sRGB">
<feFlood flood-opacity="0" result="BackgroundImageFix"/>
<feBlend mode="normal" in="SourceGraphic" in2="BackgroundImageFix" result="shape"/>
<feColorMatrix in="SourceAlpha" type="matrix" values="0 0 0 0 0 0 0 0 0 0 0 0 0 0 0 0 0 0 127 0" result="hardAlpha"/>
<feOffset dx="2"/>
<feGaussianBlur stdDeviation="1.5"/>
<feComposite in2="hardAlpha" operator="arithmetic" k2="-1" k3="1"/>
<feColorMatrix type="matrix" values="0 0 0 0 1 0 0 0 0 1 0 0 0 0 1 0 0 0 0.25 0"/>
<feBlend mode="normal" in2="shape" result="effect1_innerShadow_21_9"/>
</filter>
</defs>
</svg>
