<svg width="100" height="100" viewBox="0 0 100 100" fill="none" xmlns="http://www.w3.org/2000/svg">
<rect width="100" height="100" fill="white"/>
<path d="M89 46C89 66.8157 72.9238 83.7223 52.9923 83.9966L53 84H24.7557C21.1112 84 19.3654 79.5238 22.0475 77.0563L25.8964 73.5153C26.3086 73.1361 26.328 72.4933 25.9518 72.0784C19.7821 65.2732 16 56.0964 16 46C16 26.7791 29.7073 10.8912 47.5 8.35359V8H52.5C72.6584 8 89 25.0132 89 46Z" fill="#C8C8C8" stroke="black" stroke-width="0.5"/>
<path d="M72.9923 83.9966L73 84H44.7557C41.1112 84 39.3654 79.5238 42.0475 77.0563L45.8964 73.5153C46.3086 73.1361 46.328 72.4933 45.9518 72.0784" stroke="black" stroke-width="0.5"/>
<g filter="url(#filter0_i_21_9)">
<path fill-rule="evenodd" clip-rule="evenodd" d="M46 88C65.9314 87.7257 82 70.8157 82 50C82 29.0132 65.6584 12 45.5 12C25.3416 12 9 29.0132 9 50C9 59.7229 12.5075 68.593 18.277 75.3135C18.9192 76.0616 19.2403 76.4356 19.2166 76.8391C19.1928 77.2426 18.8438 77.5637 18.1457 78.2059L15.0475 81.0563C12.3654 83.5238 14.1112 88 17.7557 88H46Z" fill="#D9D9D9"/>
</g>
<path fill-rule="evenodd" clip-rule="evenodd" d="M46 88C65.9314 87.7257 82 70.8157 82 50C82 29.0132 65.6584 12 45.5 12C25.3416 12 9 29.0132 9 50C9 59.7229 12.5075 68.593 18.277 75.3135C18.9192 76.0616 19.2403 76.4356 19.2166 76.8391C19.1928 77.2426 18.8438 77.5637 18.1457 78.2059L15.0475 81.0563C12.3654 83.5238 14.1112 88 17.7557 88H46Z" stroke="black" stroke-width="0.5"/>
<g filter="url(#filter1_i_21_9)">
<path d="M95 50C95 29.0132 78.6584 12 58.5 12C38.3416 12 22 29.0132 22 50" stroke="black" stroke-width="0.5"/>
</g>
<defs>
<filter id="filter0_i_21_9" x="8.75" y="11.75" width="75.5" height="76.5" filterUnits="userSpaceOnUse" color-interpolation-filters="sRGB">
<feFlood flood-opacity="0" result="BackgroundImageFix"/>
<feBlend mode="normal" in="SourceGraphic" in2="BackgroundImageFix" result="shape"/>
<feColorMatrix in="SourceAlpha" type="matrix" values="0 0 0 0 0 0 0 0 0 0 0 0 0 0 0 0 0 0 127 0" result="hardAlpha"/>
<feOffset dx="2"/>
<feGaussianBlur stdDeviation="1.5"/>
<feComposite in2="hardAlpha" operator="arithmetic" k2="-1" k3="1"/>
<feColorMatrix type="matrix" values="0 0 0 0 1 0 0 0 0 1 0 0 0 0 1 0 0 0 0.25 0"/>
<feBlend mode="normal" in2="shape" result="effect1_innerShadow_21_9"/>
</filter>
<filter id="filter1_i_21_9" x="21.75" y="11.75" width="75.5" height="38.25" filterUnits="userSpaceOnUse" color-interpolation-filters="sRGB">
<feFlood flood-opacity="0" result="BackgroundImageFix"/>
<feBlend mode="normal" in="SourceGraphic" in2="BackgroundImageFix" result="shape"/>
<feColorMatrix in="SourceAlpha" type="matrix" values="0 0 0 0 0 0 0 0 0 0 0 0 0 0 0 0 0 0 127 0" result="hardAlpha"/>
<feOffset dx="2"/>
<feGaussianBlur stdDeviation="1.5"/>
<feComposite in2="hardAlpha" operator="arithmetic" k2="-1" k3="1"/>
<feColorMatrix type="matrix" values="0 0 0 0 1 0 0 0 0 1 0 0 0 0 1 0 0 0 0.25 0"/>
<feBlend mode="normal" in2="shape" result="effect1_innerShadow_21_9"/>
</filter>
</defs>
</svg>
